<?xml version="1.0" encoding="UTF-8"?>
<svg id="Layer_1" data-name="Layer 1" xmlns="http://www.w3.org/2000/svg" viewBox="0 0 640 640">
  <defs>
    <style>
      .cls-1 {
        font-family: OsnovaPro-Bold, 'Osnova Pro';
        font-size: 23.93px;
      }

      .cls-1, .cls-2 {
        font-weight: 700;
      }

      .cls-3 {
        letter-spacing: -.04em;
      }

      .cls-2 {
        font-family: FONTSPRINGDEMO-MagnumSansProAlfaBoldBold, 'FONTSPRING DEMO - Magnum Sans Pro Alfa Bold';
        font-size: 103.49px;
      }

      .cls-4 {
        letter-spacing: .18em;
      }

      .cls-5 {
        letter-spacing: .28em;
      }

      .cls-6 {
        fill: #fefefe;
      }
    </style>
  </defs>
  <rect class="cls-6" width="640" height="640"/>
  <g>
    <g>
      <text class="cls-2" transform="translate(184.04 518.44)"><tspan class="cls-4" x="0" y="0">Y</tspan><tspan class="cls-5" x="89.94" y="0">AM</tspan></text>
      <text class="cls-1" transform="translate(185.11 556.62)"><tspan x="0" y="0">GROUP OF COM</tspan><tspan class="cls-3" x="188.29" y="0">P</tspan><tspan x="201.73" y="0">ANIES</tspan></text>
    </g>
    <g>
      <polygon points="266.9 182.52 255.97 196.69 235.42 176.43 235.42 171.7 202.86 171.7 202.86 187.41 328.09 309.37 328.09 383.9 310.33 383.9 310.33 316.2 279.36 287.52 279.36 411.22 356.4 411.22 356.4 295.79 267.98 207.37 277.06 194.65 318.82 236.41 404.13 151.1 404.13 167.38 435.14 167.38 435.14 76.95 318.68 193.41 202.86 77.59 202.86 168.06 235.42 168.06 235.42 151.78 266.9 182.52"/>
      <polygon points="331.37 248.96 353.97 271.56 435.14 189.4 435.14 171.53 404.13 171.53 404.13 174.43 331.37 248.96"/>
    </g>
  </g>
</svg>